<mxfile host="app.diagrams.net" modified="2020-05-24T14:30:14.412Z" agent="5.0 (Windows)" etag="lGXE0_1GAR_SUFuFfXoT" version="13.1.3" type="github">
  <diagram id="C5RBs43oDa-KdzZeNtuy" name="Page-1">
    <mxGraphModel dx="1422" dy="763" grid="1" gridSize="10" guides="1" tooltips="1" connect="1" arrows="1" fold="1" page="1" pageScale="1" pageWidth="1169" pageHeight="827" math="0" shadow="0">
      <root>
        <mxCell id="WIyWlLk6GJQsqaUBKTNV-0" />
        <mxCell id="WIyWlLk6GJQsqaUBKTNV-1" parent="WIyWlLk6GJQsqaUBKTNV-0" />
        <mxCell id="aETTbcBO-UHg_RgbIxc2-12" value="1" style="endArrow=none;html=1;endSize=12;startArrow=diamondThin;startSize=14;startFill=1;edgeStyle=orthogonalEdgeStyle;align=left;verticalAlign=bottom;entryX=-0.023;entryY=1.099;entryDx=0;entryDy=0;entryPerimeter=0;endFill=0;" parent="WIyWlLk6GJQsqaUBKTNV-1" source="aETTbcBO-UHg_RgbIxc2-11" target="aETTbcBO-UHg_RgbIxc2-2" edge="1">
          <mxGeometry x="-1" y="22" relative="1" as="geometry">
            <mxPoint x="230" y="101" as="sourcePoint" />
            <mxPoint x="440" y="110" as="targetPoint" />
            <mxPoint x="-10" y="2" as="offset" />
          </mxGeometry>
        </mxCell>
        <mxCell id="aETTbcBO-UHg_RgbIxc2-17" value="1" style="endArrow=none;html=1;endSize=12;startArrow=diamondThin;startSize=14;startFill=1;edgeStyle=orthogonalEdgeStyle;align=left;verticalAlign=bottom;entryX=0.01;entryY=0.968;entryDx=0;entryDy=0;entryPerimeter=0;endFill=0;exitX=1;exitY=0.5;exitDx=0;exitDy=0;" parent="WIyWlLk6GJQsqaUBKTNV-1" source="aETTbcBO-UHg_RgbIxc2-2" target="aETTbcBO-UHg_RgbIxc2-14" edge="1">
          <mxGeometry x="-1" y="22" relative="1" as="geometry">
            <mxPoint x="640" y="111" as="sourcePoint" />
            <mxPoint x="845.4000000000001" y="135.346" as="targetPoint" />
            <mxPoint x="-10" y="2" as="offset" />
          </mxGeometry>
        </mxCell>
        <mxCell id="aETTbcBO-UHg_RgbIxc2-26" value="1" style="endArrow=none;html=1;endSize=12;startArrow=diamondThin;startSize=14;startFill=1;edgeStyle=orthogonalEdgeStyle;align=left;verticalAlign=bottom;endFill=0;" parent="WIyWlLk6GJQsqaUBKTNV-1" target="aETTbcBO-UHg_RgbIxc2-18" edge="1">
          <mxGeometry y="90" relative="1" as="geometry">
            <mxPoint x="860" y="260" as="sourcePoint" />
            <mxPoint x="735.4000000000001" y="204.346" as="targetPoint" />
            <mxPoint as="offset" />
            <Array as="points">
              <mxPoint x="760" y="260" />
              <mxPoint x="760" y="290" />
            </Array>
          </mxGeometry>
        </mxCell>
        <mxCell id="aETTbcBO-UHg_RgbIxc2-50" value="" style="endArrow=none;endFill=0;endSize=12;html=1;exitX=1;exitY=0.5;exitDx=0;exitDy=0;entryX=0.5;entryY=0;entryDx=0;entryDy=0;startSize=12;startArrow=block;startFill=0;" parent="WIyWlLk6GJQsqaUBKTNV-1" source="aETTbcBO-UHg_RgbIxc2-21" target="aETTbcBO-UHg_RgbIxc2-39" edge="1">
          <mxGeometry width="160" relative="1" as="geometry">
            <mxPoint x="290" y="374" as="sourcePoint" />
            <mxPoint x="680" y="430" as="targetPoint" />
          </mxGeometry>
        </mxCell>
        <mxCell id="aETTbcBO-UHg_RgbIxc2-52" value="" style="endArrow=none;endFill=0;endSize=12;html=1;exitX=1;exitY=0.5;exitDx=0;exitDy=0;entryX=0.5;entryY=0;entryDx=0;entryDy=0;startArrow=block;startFill=0;startSize=12;" parent="WIyWlLk6GJQsqaUBKTNV-1" source="aETTbcBO-UHg_RgbIxc2-19" target="aETTbcBO-UHg_RgbIxc2-43" edge="1">
          <mxGeometry width="160" relative="1" as="geometry">
            <mxPoint x="490" y="380" as="sourcePoint" />
            <mxPoint x="640" y="400" as="targetPoint" />
          </mxGeometry>
        </mxCell>
        <mxCell id="aETTbcBO-UHg_RgbIxc2-53" value="" style="endArrow=none;endFill=0;endSize=12;html=1;entryX=0.5;entryY=0;entryDx=0;entryDy=0;startArrow=block;startFill=0;startSize=12;" parent="WIyWlLk6GJQsqaUBKTNV-1" source="aETTbcBO-UHg_RgbIxc2-21" target="aETTbcBO-UHg_RgbIxc2-35" edge="1">
          <mxGeometry width="160" relative="1" as="geometry">
            <mxPoint x="520" y="410" as="sourcePoint" />
            <mxPoint x="610" y="430" as="targetPoint" />
          </mxGeometry>
        </mxCell>
        <mxCell id="aETTbcBO-UHg_RgbIxc2-54" value="" style="endArrow=none;endFill=0;endSize=12;html=1;exitX=0;exitY=0.5;exitDx=0;exitDy=0;entryX=0.5;entryY=0;entryDx=0;entryDy=0;startSize=12;startArrow=block;startFill=0;" parent="WIyWlLk6GJQsqaUBKTNV-1" source="aETTbcBO-UHg_RgbIxc2-21" target="aETTbcBO-UHg_RgbIxc2-31" edge="1">
          <mxGeometry width="160" relative="1" as="geometry">
            <mxPoint x="520" y="400" as="sourcePoint" />
            <mxPoint x="538" y="430" as="targetPoint" />
          </mxGeometry>
        </mxCell>
        <mxCell id="aETTbcBO-UHg_RgbIxc2-55" value="" style="endArrow=none;endFill=0;endSize=12;html=1;entryX=0.5;entryY=0;entryDx=0;entryDy=0;exitX=0;exitY=0.5;exitDx=0;exitDy=0;startArrow=block;startFill=0;startSize=12;" parent="WIyWlLk6GJQsqaUBKTNV-1" source="aETTbcBO-UHg_RgbIxc2-19" target="aETTbcBO-UHg_RgbIxc2-27" edge="1">
          <mxGeometry width="160" relative="1" as="geometry">
            <mxPoint x="460" y="413" as="sourcePoint" />
            <mxPoint x="620" y="413" as="targetPoint" />
          </mxGeometry>
        </mxCell>
        <mxCell id="FKc5Pqdn0euLZDNSttFq-8" value="" style="endArrow=none;endFill=0;endSize=12;html=1;exitX=1;exitY=0.25;exitDx=0;exitDy=0;entryX=0.5;entryY=0;entryDx=0;entryDy=0;startArrow=block;startFill=0;startSize=12;" parent="WIyWlLk6GJQsqaUBKTNV-1" source="aETTbcBO-UHg_RgbIxc2-18" edge="1" target="FKc5Pqdn0euLZDNSttFq-4">
          <mxGeometry width="160" relative="1" as="geometry">
            <mxPoint x="710" y="162" as="sourcePoint" />
            <mxPoint x="1070" y="330" as="targetPoint" />
          </mxGeometry>
        </mxCell>
        <mxCell id="aETTbcBO-UHg_RgbIxc2-18" value="Specs" style="swimlane;fontStyle=1;align=center;verticalAlign=top;childLayout=stackLayout;horizontal=1;startSize=26;horizontalStack=0;resizeParent=1;resizeParentMax=0;resizeLast=0;collapsible=1;marginBottom=0;" parent="WIyWlLk6GJQsqaUBKTNV-1" vertex="1">
          <mxGeometry x="460" y="280" width="190" height="190" as="geometry" />
        </mxCell>
        <mxCell id="aETTbcBO-UHg_RgbIxc2-19" value="+ Height : int&#xa;+ Depth : int&#xa;+ Width : int&#xa;+ AvailableStock : int &#xa;+ MinStock : int;&#xa;+ Code : string&#xa;+ DimensionsToString : string&#xa;" style="text;strokeColor=none;fillColor=none;align=left;verticalAlign=top;spacingLeft=4;spacingRight=4;overflow=hidden;rotatable=0;points=[[0,0.5],[1,0.5]];portConstraint=eastwest;" parent="aETTbcBO-UHg_RgbIxc2-18" vertex="1">
          <mxGeometry y="26" width="190" height="104" as="geometry" />
        </mxCell>
        <mxCell id="aETTbcBO-UHg_RgbIxc2-20" value="" style="line;strokeWidth=1;fillColor=none;align=left;verticalAlign=middle;spacingTop=-1;spacingLeft=3;spacingRight=3;rotatable=0;labelPosition=right;points=[];portConstraint=eastwest;" parent="aETTbcBO-UHg_RgbIxc2-18" vertex="1">
          <mxGeometry y="130" width="190" height="8" as="geometry" />
        </mxCell>
        <mxCell id="aETTbcBO-UHg_RgbIxc2-21" value="+ IsInStick(int) : bool&#xa;+ CountComponent() : int&#xa;+ ToString : string&#xa;" style="text;strokeColor=none;fillColor=none;align=left;verticalAlign=top;spacingLeft=4;spacingRight=4;overflow=hidden;rotatable=0;points=[[0,0.5],[1,0.5]];portConstraint=eastwest;" parent="aETTbcBO-UHg_RgbIxc2-18" vertex="1">
          <mxGeometry y="138" width="190" height="52" as="geometry" />
        </mxCell>
        <mxCell id="aETTbcBO-UHg_RgbIxc2-13" value="Box" style="swimlane;fontStyle=1;align=center;verticalAlign=top;childLayout=stackLayout;horizontal=1;startSize=26;horizontalStack=0;resizeParent=1;resizeParentMax=0;resizeLast=0;collapsible=1;marginBottom=0;" parent="WIyWlLk6GJQsqaUBKTNV-1" vertex="1">
          <mxGeometry x="860" y="40" width="200" height="240" as="geometry" />
        </mxCell>
        <mxCell id="aETTbcBO-UHg_RgbIxc2-14" value="+ Uid : int&#xa;+ Door : Door&#xa;+ Slider : Slider&#xa;+ Panel : Panel&#xa;+ Traverses : List&lt;Traverses&gt; &#xa;+ List&lt;Panel&gt; Panels&#xa;+ Height : int&#xa;+ Width : int&#xa;+ Depth : int&#xa;" style="text;strokeColor=none;fillColor=none;align=left;verticalAlign=top;spacingLeft=4;spacingRight=4;overflow=hidden;rotatable=0;points=[[0,0.5],[1,0.5]];portConstraint=eastwest;" parent="aETTbcBO-UHg_RgbIxc2-13" vertex="1">
          <mxGeometry y="26" width="200" height="134" as="geometry" />
        </mxCell>
        <mxCell id="aETTbcBO-UHg_RgbIxc2-15" value="" style="line;strokeWidth=1;fillColor=none;align=left;verticalAlign=middle;spacingTop=-1;spacingLeft=3;spacingRight=3;rotatable=0;labelPosition=right;points=[];portConstraint=eastwest;" parent="aETTbcBO-UHg_RgbIxc2-13" vertex="1">
          <mxGeometry y="160" width="200" height="8" as="geometry" />
        </mxCell>
        <mxCell id="aETTbcBO-UHg_RgbIxc2-16" value="+ ComputeHeight() : int&#xa;+ ComputeWidth() : int&#xa;+ ComputeDepth() :int&#xa;+ ToString() : string&#xa;" style="text;strokeColor=none;fillColor=none;align=left;verticalAlign=top;spacingLeft=4;spacingRight=4;overflow=hidden;rotatable=0;points=[[0,0.5],[1,0.5]];portConstraint=eastwest;" parent="aETTbcBO-UHg_RgbIxc2-13" vertex="1">
          <mxGeometry y="168" width="200" height="72" as="geometry" />
        </mxCell>
        <mxCell id="aETTbcBO-UHg_RgbIxc2-8" value="Order" style="swimlane;fontStyle=1;align=center;verticalAlign=top;childLayout=stackLayout;horizontal=1;startSize=26;horizontalStack=0;resizeParent=1;resizeParentMax=0;resizeLast=0;collapsible=1;marginBottom=0;" parent="WIyWlLk6GJQsqaUBKTNV-1" vertex="1">
          <mxGeometry x="10" y="40" width="400" height="220" as="geometry" />
        </mxCell>
        <mxCell id="aETTbcBO-UHg_RgbIxc2-9" value="+ CupboardList : List&lt;Cupboard&gt;&#xa;+ State : string" style="text;strokeColor=none;fillColor=none;align=left;verticalAlign=top;spacingLeft=4;spacingRight=4;overflow=hidden;rotatable=0;points=[[0,0.5],[1,0.5]];portConstraint=eastwest;" parent="aETTbcBO-UHg_RgbIxc2-8" vertex="1">
          <mxGeometry y="26" width="400" height="44" as="geometry" />
        </mxCell>
        <mxCell id="aETTbcBO-UHg_RgbIxc2-10" value="" style="line;strokeWidth=1;fillColor=none;align=left;verticalAlign=middle;spacingTop=-1;spacingLeft=3;spacingRight=3;rotatable=0;labelPosition=right;points=[];portConstraint=eastwest;" parent="aETTbcBO-UHg_RgbIxc2-8" vertex="1">
          <mxGeometry y="70" width="400" height="8" as="geometry" />
        </mxCell>
        <mxCell id="aETTbcBO-UHg_RgbIxc2-11" value="+ Add (int, TreeViewManager) : void&#xa;+ ClearCupboardList() : void&#xa;+ RemoveAt (int) : void&#xa;+ CheckState() : string&#xa;+ MakeOrder() : List&lt;List&lt;string&gt;&gt;&#xa;+ GetQuantityCode(string) : int&#xa;- PrepareOrder(Cupboard, List&lt;List&lt;string&gt;&gt;) : void&#xa;+ AddAngleQuantityToOrder(Cupboard, string, List&lt;List&lt;string&gt;&gt;) : bool&#xa;-  AddQuanityToOrder(Box, string, List&lt;List&lt;string&gt;&gt;) : bool" style="text;strokeColor=none;fillColor=none;align=left;verticalAlign=top;spacingLeft=4;spacingRight=4;overflow=hidden;rotatable=0;points=[[0,0.5],[1,0.5]];portConstraint=eastwest;" parent="aETTbcBO-UHg_RgbIxc2-8" vertex="1">
          <mxGeometry y="78" width="400" height="142" as="geometry" />
        </mxCell>
        <mxCell id="aETTbcBO-UHg_RgbIxc2-1" value="Cupboard" style="swimlane;fontStyle=1;align=center;verticalAlign=top;childLayout=stackLayout;horizontal=1;startSize=26;horizontalStack=0;resizeParent=1;resizeParentMax=0;resizeLast=0;collapsible=1;marginBottom=0;" parent="WIyWlLk6GJQsqaUBKTNV-1" vertex="1">
          <mxGeometry x="460" y="40" width="310" height="208" as="geometry" />
        </mxCell>
        <mxCell id="aETTbcBO-UHg_RgbIxc2-2" value="+ Uid : int&#xa;+ ListBoxes : List&lt;Box&gt; &#xa;+ CupboardAngle CupboardAngle&#xa;+ State : string" style="text;strokeColor=none;fillColor=none;align=left;verticalAlign=top;spacingLeft=4;spacingRight=4;overflow=hidden;rotatable=0;points=[[0,0.5],[1,0.5]];portConstraint=eastwest;" parent="aETTbcBO-UHg_RgbIxc2-1" vertex="1">
          <mxGeometry y="26" width="310" height="74" as="geometry" />
        </mxCell>
        <mxCell id="aETTbcBO-UHg_RgbIxc2-3" value="" style="line;strokeWidth=1;fillColor=none;align=left;verticalAlign=middle;spacingTop=-1;spacingLeft=3;spacingRight=3;rotatable=0;labelPosition=right;points=[];portConstraint=eastwest;" parent="aETTbcBO-UHg_RgbIxc2-1" vertex="1">
          <mxGeometry y="100" width="310" height="8" as="geometry" />
        </mxCell>
        <mxCell id="aETTbcBO-UHg_RgbIxc2-4" value="+ AddBox (int, int, Door, Slider, List&lt;Panels&gt;, &#xa;List&lt;Traverses&gt; Cups, string, TreeviewManager) : Box&#xa;+ RemoveAt () : void&#xa;+ CoutBox() : int&#xa;+ CheckState() : string&#xa;+ GetSizes() : Dictionairy&lt;string, string&gt;&#xa;" style="text;strokeColor=none;fillColor=none;align=left;verticalAlign=top;spacingLeft=4;spacingRight=4;overflow=hidden;rotatable=0;points=[[0,0.5],[1,0.5]];portConstraint=eastwest;" parent="aETTbcBO-UHg_RgbIxc2-1" vertex="1">
          <mxGeometry y="108" width="310" height="100" as="geometry" />
        </mxCell>
        <mxCell id="aETTbcBO-UHg_RgbIxc2-35" value="Panel" style="swimlane;fontStyle=1;align=center;verticalAlign=top;childLayout=stackLayout;horizontal=1;startSize=26;horizontalStack=0;resizeParent=1;resizeParentMax=0;resizeLast=0;collapsible=1;marginBottom=0;" parent="WIyWlLk6GJQsqaUBKTNV-1" vertex="1">
          <mxGeometry x="475" y="566" width="160" height="120" as="geometry" />
        </mxCell>
        <mxCell id="aETTbcBO-UHg_RgbIxc2-36" value="+ Color : string&#xa;+ Type : string" style="text;strokeColor=none;fillColor=none;align=left;verticalAlign=top;spacingLeft=4;spacingRight=4;overflow=hidden;rotatable=0;points=[[0,0.5],[1,0.5]];portConstraint=eastwest;" parent="aETTbcBO-UHg_RgbIxc2-35" vertex="1">
          <mxGeometry y="26" width="160" height="44" as="geometry" />
        </mxCell>
        <mxCell id="aETTbcBO-UHg_RgbIxc2-37" value="" style="line;strokeWidth=1;fillColor=none;align=left;verticalAlign=middle;spacingTop=-1;spacingLeft=3;spacingRight=3;rotatable=0;labelPosition=right;points=[];portConstraint=eastwest;" parent="aETTbcBO-UHg_RgbIxc2-35" vertex="1">
          <mxGeometry y="70" width="160" height="8" as="geometry" />
        </mxCell>
        <mxCell id="aETTbcBO-UHg_RgbIxc2-38" value="+ CountComponents() : int&#xa;+ ToString() : string" style="text;strokeColor=none;fillColor=none;align=left;verticalAlign=top;spacingLeft=4;spacingRight=4;overflow=hidden;rotatable=0;points=[[0,0.5],[1,0.5]];portConstraint=eastwest;" parent="aETTbcBO-UHg_RgbIxc2-35" vertex="1">
          <mxGeometry y="78" width="160" height="42" as="geometry" />
        </mxCell>
        <mxCell id="aETTbcBO-UHg_RgbIxc2-39" value="Slider" style="swimlane;fontStyle=1;align=center;verticalAlign=top;childLayout=stackLayout;horizontal=1;startSize=26;horizontalStack=0;resizeParent=1;resizeParentMax=0;resizeLast=0;collapsible=1;marginBottom=0;" parent="WIyWlLk6GJQsqaUBKTNV-1" vertex="1">
          <mxGeometry x="680" y="566" width="160" height="80" as="geometry" />
        </mxCell>
        <mxCell id="aETTbcBO-UHg_RgbIxc2-41" value="" style="line;strokeWidth=1;fillColor=none;align=left;verticalAlign=middle;spacingTop=-1;spacingLeft=3;spacingRight=3;rotatable=0;labelPosition=right;points=[];portConstraint=eastwest;" parent="aETTbcBO-UHg_RgbIxc2-39" vertex="1">
          <mxGeometry y="26" width="160" height="8" as="geometry" />
        </mxCell>
        <mxCell id="aETTbcBO-UHg_RgbIxc2-42" value="+ CountComponents() : int&#xa;+ ToString() : string" style="text;strokeColor=none;fillColor=none;align=left;verticalAlign=top;spacingLeft=4;spacingRight=4;overflow=hidden;rotatable=0;points=[[0,0.5],[1,0.5]];portConstraint=eastwest;" parent="aETTbcBO-UHg_RgbIxc2-39" vertex="1">
          <mxGeometry y="34" width="160" height="46" as="geometry" />
        </mxCell>
        <mxCell id="aETTbcBO-UHg_RgbIxc2-43" value="Cups" style="swimlane;fontStyle=1;align=center;verticalAlign=top;childLayout=stackLayout;horizontal=1;startSize=26;horizontalStack=0;resizeParent=1;resizeParentMax=0;resizeLast=0;collapsible=1;marginBottom=0;" parent="WIyWlLk6GJQsqaUBKTNV-1" vertex="1">
          <mxGeometry x="890" y="566" width="160" height="80" as="geometry" />
        </mxCell>
        <mxCell id="aETTbcBO-UHg_RgbIxc2-45" value="" style="line;strokeWidth=1;fillColor=none;align=left;verticalAlign=middle;spacingTop=-1;spacingLeft=3;spacingRight=3;rotatable=0;labelPosition=right;points=[];portConstraint=eastwest;" parent="aETTbcBO-UHg_RgbIxc2-43" vertex="1">
          <mxGeometry y="26" width="160" height="8" as="geometry" />
        </mxCell>
        <mxCell id="aETTbcBO-UHg_RgbIxc2-46" value="+ CountComponents() : int&#xa;+ ToString() : string" style="text;strokeColor=none;fillColor=none;align=left;verticalAlign=top;spacingLeft=4;spacingRight=4;overflow=hidden;rotatable=0;points=[[0,0.5],[1,0.5]];portConstraint=eastwest;" parent="aETTbcBO-UHg_RgbIxc2-43" vertex="1">
          <mxGeometry y="34" width="160" height="46" as="geometry" />
        </mxCell>
        <mxCell id="aETTbcBO-UHg_RgbIxc2-31" value="Door" style="swimlane;fontStyle=1;align=center;verticalAlign=top;childLayout=stackLayout;horizontal=1;startSize=26;horizontalStack=0;resizeParent=1;resizeParentMax=0;resizeLast=0;collapsible=1;marginBottom=0;" parent="WIyWlLk6GJQsqaUBKTNV-1" vertex="1">
          <mxGeometry x="270" y="566" width="160" height="100" as="geometry" />
        </mxCell>
        <mxCell id="aETTbcBO-UHg_RgbIxc2-32" value="+ Color : string" style="text;strokeColor=none;fillColor=none;align=left;verticalAlign=top;spacingLeft=4;spacingRight=4;overflow=hidden;rotatable=0;points=[[0,0.5],[1,0.5]];portConstraint=eastwest;" parent="aETTbcBO-UHg_RgbIxc2-31" vertex="1">
          <mxGeometry y="26" width="160" height="26" as="geometry" />
        </mxCell>
        <mxCell id="aETTbcBO-UHg_RgbIxc2-33" value="" style="line;strokeWidth=1;fillColor=none;align=left;verticalAlign=middle;spacingTop=-1;spacingLeft=3;spacingRight=3;rotatable=0;labelPosition=right;points=[];portConstraint=eastwest;" parent="aETTbcBO-UHg_RgbIxc2-31" vertex="1">
          <mxGeometry y="52" width="160" height="8" as="geometry" />
        </mxCell>
        <mxCell id="aETTbcBO-UHg_RgbIxc2-34" value="+ CountComponents() : int&#xa;+ ToString() : string" style="text;strokeColor=none;fillColor=none;align=left;verticalAlign=top;spacingLeft=4;spacingRight=4;overflow=hidden;rotatable=0;points=[[0,0.5],[1,0.5]];portConstraint=eastwest;" parent="aETTbcBO-UHg_RgbIxc2-31" vertex="1">
          <mxGeometry y="60" width="160" height="40" as="geometry" />
        </mxCell>
        <mxCell id="aETTbcBO-UHg_RgbIxc2-27" value="CupboardAngle" style="swimlane;fontStyle=1;align=center;verticalAlign=top;childLayout=stackLayout;horizontal=1;startSize=26;horizontalStack=0;resizeParent=1;resizeParentMax=0;resizeLast=0;collapsible=1;marginBottom=0;" parent="WIyWlLk6GJQsqaUBKTNV-1" vertex="1">
          <mxGeometry x="70" y="566" width="160" height="100" as="geometry" />
        </mxCell>
        <mxCell id="aETTbcBO-UHg_RgbIxc2-28" value="+ Color : string" style="text;strokeColor=none;fillColor=none;align=left;verticalAlign=top;spacingLeft=4;spacingRight=4;overflow=hidden;rotatable=0;points=[[0,0.5],[1,0.5]];portConstraint=eastwest;" parent="aETTbcBO-UHg_RgbIxc2-27" vertex="1">
          <mxGeometry y="26" width="160" height="26" as="geometry" />
        </mxCell>
        <mxCell id="aETTbcBO-UHg_RgbIxc2-29" value="" style="line;strokeWidth=1;fillColor=none;align=left;verticalAlign=middle;spacingTop=-1;spacingLeft=3;spacingRight=3;rotatable=0;labelPosition=right;points=[];portConstraint=eastwest;" parent="aETTbcBO-UHg_RgbIxc2-27" vertex="1">
          <mxGeometry y="52" width="160" height="8" as="geometry" />
        </mxCell>
        <mxCell id="aETTbcBO-UHg_RgbIxc2-30" value="+ CountComponents() : int&#xa;+ ToString() : string&#xa;" style="text;strokeColor=none;fillColor=none;align=left;verticalAlign=top;spacingLeft=4;spacingRight=4;overflow=hidden;rotatable=0;points=[[0,0.5],[1,0.5]];portConstraint=eastwest;" parent="aETTbcBO-UHg_RgbIxc2-27" vertex="1">
          <mxGeometry y="60" width="160" height="40" as="geometry" />
        </mxCell>
        <mxCell id="FKc5Pqdn0euLZDNSttFq-4" value="Traverses" style="swimlane;fontStyle=1;align=center;verticalAlign=top;childLayout=stackLayout;horizontal=1;startSize=26;horizontalStack=0;resizeParent=1;resizeParentMax=0;resizeLast=0;collapsible=1;marginBottom=0;" parent="WIyWlLk6GJQsqaUBKTNV-1" vertex="1">
          <mxGeometry x="980" y="430" width="160" height="94" as="geometry" />
        </mxCell>
        <mxCell id="FKc5Pqdn0euLZDNSttFq-5" value="+ Type : string" style="text;strokeColor=none;fillColor=none;align=left;verticalAlign=top;spacingLeft=4;spacingRight=4;overflow=hidden;rotatable=0;points=[[0,0.5],[1,0.5]];portConstraint=eastwest;" parent="FKc5Pqdn0euLZDNSttFq-4" vertex="1">
          <mxGeometry y="26" width="160" height="34" as="geometry" />
        </mxCell>
        <mxCell id="FKc5Pqdn0euLZDNSttFq-6" value="" style="line;strokeWidth=1;fillColor=none;align=left;verticalAlign=middle;spacingTop=-1;spacingLeft=3;spacingRight=3;rotatable=0;labelPosition=right;points=[];portConstraint=eastwest;" parent="FKc5Pqdn0euLZDNSttFq-4" vertex="1">
          <mxGeometry y="60" width="160" height="8" as="geometry" />
        </mxCell>
        <mxCell id="FKc5Pqdn0euLZDNSttFq-7" value="+ CountComponents() : int&#xa;&#xa;+ ToString() : string" style="text;strokeColor=none;fillColor=none;align=left;verticalAlign=top;spacingLeft=4;spacingRight=4;overflow=hidden;rotatable=0;points=[[0,0.5],[1,0.5]];portConstraint=eastwest;" parent="FKc5Pqdn0euLZDNSttFq-4" vertex="1">
          <mxGeometry y="68" width="160" height="26" as="geometry" />
        </mxCell>
        <mxCell id="YvYkMleamyuJylsXmsLT-3" value="1..*" style="text;html=1;align=center;verticalAlign=middle;resizable=0;points=[];autosize=1;" vertex="1" parent="WIyWlLk6GJQsqaUBKTNV-1">
          <mxGeometry x="650" y="290" width="30" height="20" as="geometry" />
        </mxCell>
        <mxCell id="YvYkMleamyuJylsXmsLT-4" value="0..*" style="text;html=1;align=center;verticalAlign=middle;resizable=0;points=[];autosize=1;" vertex="1" parent="WIyWlLk6GJQsqaUBKTNV-1">
          <mxGeometry x="830" y="170" width="30" height="20" as="geometry" />
        </mxCell>
        <mxCell id="YvYkMleamyuJylsXmsLT-5" value="0..*" style="text;html=1;align=center;verticalAlign=middle;resizable=0;points=[];autosize=1;" vertex="1" parent="WIyWlLk6GJQsqaUBKTNV-1">
          <mxGeometry x="430" y="120" width="30" height="20" as="geometry" />
        </mxCell>
      </root>
    </mxGraphModel>
  </diagram>
</mxfile>
